<?xml version="1.0" encoding="UTF-8"?>
<svg width="3000px" height="3000px" viewBox="0 0 3000 3000" version="1.1" xmlns="http://www.w3.org/2000/svg" xmlns:xlink="http://www.w3.org/1999/xlink">
    <!-- Generator: Sketch 63.1 (92452) - https://sketch.com -->
    <title>Group 7</title>
    <desc>Created with Sketch.</desc>
    <g id="Page-1" stroke="none" stroke-width="1" fill="none" fill-rule="evenodd">
        <g id="Group-7">
            <g id="Group-6">
                <ellipse id="Oval" stroke="#979797" fill="#FBFBFB" cx="1417.5" cy="1045" rx="910" ry="550.5"></ellipse>
                <g id="Group-2"></g>
                <rect id="Rectangle" stroke="#979797" fill="#475159" x="0.5" y="0.5" width="2999" height="2999"></rect>
                <g id="Group-5" transform="translate(409.000000, 366.000000)">
                    <g id="Group-3" transform="translate(0.000000, 529.000000)" fill="#FBFBFB">
                        <path d="M588.975089,874.344941 C592.103619,868.775154 660.080737,692.381657 660.080737,591.209526 C660.080737,369.467199 573.000121,189.709526 465.580737,189.709526 C432.209231,189.709526 406.108351,200.357182 378.663901,230.924236 C317.767541,298.749327 271.080737,438.35491 271.080737,591.209526 C271.080737,747.161942 333.335757,1034.393 408.550573,1097.28662 C426.117643,1111.97597 496.283643,1040.94644 542.3883,972.480924 C572.580793,927.645006 586.734516,878.333881 588.975089,874.344941 Z" id="Oval" transform="translate(465.580737, 644.471835) rotate(-47.000000) translate(-465.580737, -644.471835) "></path>
                        <path d="M275.85403,0 C278.072057,92.2254827 289.405391,165.558816 309.85403,220 C330.30267,274.441184 383.969337,332.107851 470.85403,393 L103.85403,426 C98.2784215,341.459768 105.278421,276.126435 124.85403,230 C144.429639,183.873565 194.762973,107.206899 275.85403,0 Z" id="Triangle"></path>
                    </g>
                    <g id="Group-3" transform="translate(1717.500000, 1051.500000) scale(-1, 1) translate(-1717.500000, -1051.500000) translate(1252.000000, 503.000000)" fill="#FBFBFB">
                        <path d="M588.975089,874.344941 C592.103619,868.775154 660.080737,692.381657 660.080737,591.209526 C660.080737,369.467199 573.000121,189.709526 465.580737,189.709526 C432.209231,189.709526 406.108351,200.357182 378.663901,230.924236 C317.767541,298.749327 271.080737,438.35491 271.080737,591.209526 C271.080737,747.161942 333.335757,1034.393 408.550573,1097.28662 C426.117643,1111.97597 496.283643,1040.94644 542.3883,972.480924 C572.580793,927.645006 586.734516,878.333881 588.975089,874.344941 Z" id="Oval" transform="translate(465.580737, 644.471835) rotate(-47.000000) translate(-465.580737, -644.471835) "></path>
                        <path d="M275.85403,0 C278.072057,92.2254827 289.405391,165.558816 309.85403,220 C330.30267,274.441184 383.969337,332.107851 470.85403,393 L103.85403,426 C98.2784215,341.459768 105.278421,276.126435 124.85403,230 C144.429639,183.873565 194.762973,107.206899 275.85403,0 Z" id="Triangle"></path>
                    </g>
                    <g id="Group-4" transform="translate(348.000000, 0.000000)" stroke="#979797">
                        <ellipse id="Oval" fill="#FBFBFB" cx="740.5" cy="515.5" rx="740" ry="515"></ellipse>
                        <ellipse id="Oval" fill="#38424A" cx="736.5" cy="639.5" rx="515" ry="340"></ellipse>
                        <ellipse id="Oval" fill="#A4D9E1" transform="translate(1012.500000, 655.000000) rotate(-30.000000) translate(-1012.500000, -655.000000) " cx="1012.5" cy="655" rx="122" ry="88.5"></ellipse>
                        <ellipse id="Oval" fill="#A4D9E1" transform="translate(454.500000, 656.000000) rotate(31.000000) translate(-454.500000, -656.000000) " cx="454.5" cy="656" rx="122" ry="88.5"></ellipse>
                    </g>
                </g>
                <g id="Group" transform="translate(1202.000000, 1433.000000)">
                    <ellipse id="Oval" stroke="#A4D9E1" stroke-width="15" fill-opacity="0.01" fill="#475159" cx="299.5" cy="298" rx="66" ry="290.5"></ellipse>
                    <ellipse id="Oval" stroke="#A4D9E1" stroke-width="15" fill-opacity="0.01" fill="#475159" transform="translate(300.293169, 317.925568) rotate(-62.000000) translate(-300.293169, -317.925568) " cx="300.293169" cy="317.925568" rx="66" ry="290.5"></ellipse>
                    <ellipse id="Oval" stroke="#A4D9E1" stroke-width="15" fill-opacity="0.01" fill="#475159" transform="translate(288.500000, 307.000000) rotate(56.000000) translate(-288.500000, -307.000000) " cx="288.5" cy="307" rx="66" ry="290.5"></ellipse>
                    <circle id="Oval" stroke="#A4D9E1" fill="#A4D9E1" cx="289" cy="307" r="39.5"></circle>
                    <circle id="Oval" stroke="#979797" fill="#A4D9E1" cx="251" cy="498" r="24.5"></circle>
                    <circle id="Oval" stroke="#979797" fill="#A4D9E1" cx="79" cy="242" r="24.5"></circle>
                    <circle id="Oval" stroke="#A4D9E1" fill="#A4D9E1" cx="436" cy="156" r="24.5"></circle>
                </g>
            </g>
            <text id="Citizen-Cosmos" font-family="Monaco" font-size="300" font-weight="normal" fill="#FBFBFB">
                <tspan x="270" y="2529">Citizen Cosmos</tspan>
            </text>
        </g>
    </g>
</svg>